<svg width="14" height="14" viewBox="0 0 14 14" fill="none" xmlns="http://www.w3.org/2000/svg">
<g id="stars">
<path id="Vector" d="M7.25332 11.295L7.0005 11.1465L6.74743 11.2946L3.35253 13.2817L3.35164 13.2822C3.22483 13.3568 3.09098 13.3406 2.9897 13.2691C2.88918 13.198 2.84375 13.0912 2.87248 12.9712L3.77227 9.21983L3.84429 8.91957L3.60808 8.72071L0.605847 6.19317L0.60567 6.19302C0.417515 6.03476 0.492284 5.70614 0.788644 5.68324L0.788644 5.68324L0.791214 5.68303L4.74238 5.35715L5.03987 5.33262L5.15943 5.05911L6.70554 1.52214L6.70554 1.52214L6.70639 1.52017C6.75545 1.40663 6.86371 1.33902 7 1.33902C7.13629 1.33902 7.24455 1.40663 7.2936 1.52017L7.2943 1.52177L8.84041 5.06668L8.95985 5.34054L9.25762 5.3651L13.2088 5.69099L13.2114 5.69118C13.5077 5.71409 13.5825 6.04271 13.3943 6.20097L13.3942 6.20112L10.3919 8.72866L10.1557 8.92752L10.2277 9.22778L11.1275 12.9791C11.1562 13.0991 11.1108 13.206 11.0103 13.277C10.909 13.3486 10.7752 13.3647 10.6484 13.2901L10.6482 13.2901L7.25332 11.295Z" fill="#F8B656" stroke="#F8B656"/>
</g>
</svg>
